# xmcd
#
# Track frame offsets: 
#        150
#        6730
#        28366
#        31038
#        52475
#        78177
#        99186
#        102087
#        119571
#        122158
#        143303
#        162300
#        188497
#        193197
#        213311
#        217973
#        223432
#        242632
#        251509
#        275150
#        280227
#        304650
#        326873
#        336834
#
# Disc length: 4685 seconds
#
# Revision: 1
# Processed by: cddbd v1.5.2PL0 Copyright (c) Steve Scherf et al.
# Submitted via: ExactAudioCopy v0.99pb5
#
DISCID=6f124b18
DTITLE=Lucinda Williams - LA [1 World Without Tears]
DYEAR=2007
DGENRE=Folk/Rock
TTITLE0="Hey everybody"
TTITLE1=Fruits of My Labor
TTITLE2="Thank y'all so much"
TTITLE3=Righteously
TTITLE4=Ventura
TTITLE5=Real Live Bleeding Fingers and Broken Guitar Strings
TTITLE6="I feel like we're having"
TTITLE7=Over Time
TTITLE8="This is a song that"
TTITLE9=Those Three Days
TTITLE10="I wanna introduce the band"
TTITLE11=Atonement
TTITLE12="This next song is"
TTITLE13=Sweet Side
TTITLE14="This is cool"
TTITLE15=Minneapolis [take 1]
TTITLE16=Minneapolis
TTITLE17="I'll tell ya, I love bad boys"
TTITLE18=People Talkin'
TTITLE19="This is my noble attempt"
TTITLE20=American Dream
TTITLE21=World Without Tears
TTITLE22="I'm gonna do this song"
TTITLE23=Words Fell
EXTD=
EXTT0=
EXTT1=
EXTT2=
EXTT3=
EXTT4=
EXTT5=
EXTT6=
EXTT7=
EXTT8=
EXTT9=
EXTT10=
EXTT11=
EXTT12=
EXTT13=
EXTT14=
EXTT15=
EXTT16=
EXTT17=
EXTT18=
EXTT19=
EXTT20=
EXTT21=
EXTT22=
EXTT23=
PLAYORDER=
